<?xml version="1.0" standalone="no"?>
<!DOCTYPE svg PUBLIC "-//W3C//DTD SVG 20010904//EN"
 "http://www.w3.org/TR/2001/REC-SVG-20010904/DTD/svg10.dtd">
<svg version="1.0" xmlns="http://www.w3.org/2000/svg"
 width="500.000000pt" height="500.000000pt" viewBox="0 0 500.000000 500.000000"
 preserveAspectRatio="xMidYMid meet">

<g transform="translate(0.000000,500.000000) scale(0.100000,-0.100000)"
fill="#000000" stroke="none">
<path d="M3025 3350 c33 -130 151 -263 332 -373 121 -74 194 -133 225 -182 18
-27 19 -28 13 -5 -27 97 -120 195 -305 320 -154 104 -203 148 -245 220 -16 28
-24 35 -20 20z"/>
<path d="M2640 3230 c39 -57 142 -153 204 -189 78 -47 184 -83 351 -120 218
-49 283 -74 351 -134 54 -46 27 -3 -33 54 -105 101 -209 149 -472 215 -199 51
-294 91 -372 161 -50 45 -52 46 -29 13z"/>
<path d="M2240 2954 c0 -8 122 -85 179 -113 113 -57 196 -74 371 -74 92 0 204
6 277 17 207 28 373 21 456 -21 16 -8 31 -12 33 -10 9 8 -151 85 -226 109 -67
20 -94 23 -255 23 -99 0 -256 -6 -350 -14 -151 -12 -180 -12 -260 2 -56 10
-115 29 -157 50 -37 18 -68 32 -68 31z"/>
<path d="M1576 2558 c-42 -101 -76 -186 -76 -190 0 -5 9 -8 21 -8 14 0 26 13
40 44 16 36 25 45 53 50 19 4 52 4 73 0 35 -5 41 -11 55 -48 12 -35 20 -41 46
-44 l31 -3 -79 187 c-44 103 -81 188 -83 191 -2 2 -39 -79 -81 -179z m118 -36
c7 -21 5 -22 -43 -22 l-50 0 16 38 c8 20 20 48 25 62 10 25 10 25 28 -15 9
-22 20 -50 24 -63z"/>
<path d="M2412 2567 c-39 -94 -74 -180 -78 -189 -5 -14 -1 -18 19 -18 20 0 27
8 41 44 14 37 22 45 50 50 19 4 52 4 74 0 36 -6 42 -11 57 -50 14 -38 21 -44
46 -44 29 0 29 0 16 33 -8 17 -42 100 -77 182 -34 83 -65 153 -69 157 -4 5
-39 -70 -79 -165z m117 -54 c1 -9 -14 -13 -44 -13 -25 0 -45 4 -45 9 0 4 10
32 22 62 l22 53 22 -50 c13 -27 23 -55 23 -61z"/>
<path d="M1910 2545 l0 -185 25 0 25 0 0 127 0 128 135 -135 135 -135 0 193 0
192 -25 0 -25 0 0 -132 0 -133 -132 133 c-72 72 -133 132 -135 132 -2 0 -3
-83 -3 -185z"/>
<path d="M2740 2545 l0 -185 25 0 25 0 0 125 c0 69 3 125 6 125 3 0 63 -60
134 -132 l129 -133 1 193 0 193 -22 -3 c-22 -3 -23 -8 -28 -132 l-5 -129 -124
131 c-68 73 -128 132 -132 132 -5 0 -9 -83 -9 -185z"/>
<path d="M3190 2545 l0 -185 79 0 c90 0 124 10 164 48 41 39 57 75 57 129 -1
127 -82 193 -237 193 l-63 0 0 -185z m195 109 c54 -35 71 -123 35 -181 -25
-42 -68 -63 -130 -63 l-50 0 0 136 0 137 59 -6 c32 -2 71 -13 86 -23z"/>
<path d="M1910 2231 c0 -48 2 -51 25 -51 31 0 37 14 27 60 -6 26 -14 36 -30
38 -20 3 -22 -1 -22 -47z m38 18 c-2 -6 -8 -10 -13 -10 -5 0 -11 4 -13 10 -2
6 4 11 13 11 9 0 15 -5 13 -11z m5 -44 c1 -5 -6 -11 -15 -13 -11 -2 -18 3 -18
13 0 17 30 18 33 0z"/>
<path d="M2001 2228 c0 -46 2 -50 11 -28 l10 25 15 -22 c9 -13 20 -23 25 -23
6 0 5 6 -2 15 -6 8 -9 23 -5 35 8 25 -10 50 -36 50 -16 0 -19 -8 -18 -52z m42
17 c1 -5 -6 -11 -15 -13 -11 -2 -18 3 -18 13 0 17 30 18 33 0z"/>
<path d="M2327 2274 c-4 -4 -7 -27 -7 -51 0 -40 2 -43 28 -43 15 0 33 5 40 12
13 13 16 47 4 65 -9 14 -55 27 -65 17z m60 -30 c8 -20 -8 -48 -31 -52 -12 -3
-16 4 -16 32 0 30 4 36 20 36 11 0 23 -7 27 -16z"/>
<path d="M2491 2228 c1 -29 4 -43 6 -31 2 13 13 24 26 26 l22 4 -22 2 c-28 1
-31 31 -3 31 11 0 20 5 20 10 0 6 -11 10 -25 10 -24 0 -25 -3 -24 -52z"/>
<path d="M2588 2238 c-20 -47 -23 -73 -7 -45 13 22 35 22 48 0 20 -36 18 -6
-3 40 l-21 48 -17 -43z m26 -3 c3 -8 1 -15 -4 -15 -6 0 -10 7 -10 15 0 8 2 15
4 15 2 0 6 -7 10 -15z"/>
<path d="M2679 2264 c-11 -13 -8 -19 17 -39 25 -20 27 -24 12 -30 -9 -4 -22
-3 -29 1 -8 4 -9 3 -5 -4 11 -18 46 -14 53 5 4 10 -2 23 -16 34 -25 20 -20 42
6 32 11 -4 14 -3 9 5 -10 17 -31 15 -47 -4z"/>
<path d="M2828 2258 c-4 -31 -48 -39 -48 -9 0 12 -4 21 -10 21 -5 0 -10 -20
-10 -45 0 -25 5 -45 10 -45 6 0 10 9 10 20 0 30 47 28 53 -2 2 -13 5 1 6 30 1
53 -5 70 -11 30z"/>
<path d="M2883 2230 c0 -30 2 -43 4 -27 2 15 2 39 0 55 -2 15 -4 2 -4 -28z"/>
<path d="M2940 2260 c-25 -25 -25 -42 -2 -63 35 -32 82 -15 82 28 0 23 -28 55
-48 55 -7 0 -21 -9 -32 -20z m65 -21 c9 -28 -16 -53 -44 -44 -20 6 -29 43 -14
58 15 15 52 6 58 -14z"/>
<path d="M3124 2265 c-4 -8 -4 -22 0 -30 8 -23 -8 -18 -34 10 -33 35 -40 32
-40 -20 0 -25 5 -45 10 -45 6 0 10 14 10 32 l0 32 35 -34 35 -34 0 52 c0 52
-6 65 -16 37z"/>
<path d="M2107 2223 c-17 -45 -17 -46 1 -30 23 21 38 21 46 1 4 -9 9 -15 12
-12 6 7 -26 88 -35 88 -4 0 -14 -21 -24 -47z m33 7 c0 -5 -4 -10 -10 -10 -5 0
-10 5 -10 10 0 6 5 10 10 10 6 0 10 -4 10 -10z"/>
<path d="M2202 2223 c1 -37 2 -40 5 -15 2 17 7 32 11 32 3 0 21 -14 39 -32
l33 -32 0 47 c0 26 -4 47 -10 47 -5 0 -10 -15 -10 -32 l0 -33 -26 33 c-14 17
-30 32 -35 32 -5 0 -8 -21 -7 -47z"/>
</g>
</svg>
